<?xml version="1.0" standalone="no"?><!DOCTYPE svg PUBLIC "-//W3C//DTD SVG 1.1//EN" "http://www.w3.org/Graphics/SVG/1.1/DTD/svg11.dtd"><svg width="300" height="300" viewBox="0 0 300 300" version="1.1" xmlns="http://www.w3.org/2000/svg" xmlns:xlink="http://www.w3.org/1999/xlink"><defs xmlns="http://www.w3.org/1999/xhtml"><style type="text/css"><![CDATA[
html, body { margin: 0px; padding: 0px; }
.blob-div { width: 24%; text-align: center; display: inline-block; }
.svg-crowbar { margin-left: 35px; margin-top: 130px; background: none !important; color: black !important; font-family: sans-serif !important; font-size: 0.95em !important; }]]></style></defs> <g transform="rotate(18.135584788396955,150,150)"> <path stroke="none" stroke-width="0" fill="#99bbff" d="M150,41.4871656089141C174.7758256236171,39.27200161927929,197.3585180012213,54.88586368652927,215.843151008976,71.53118823732979C233.72968323426593,87.63792586384368,246.57196506448014,108.53065503091035,250.7713525048045,132.2312916709194C254.97369330565112,155.94859658114646,253.30600809573048,182.03392975574954,238.83413016669112,201.28840896496536C225.18225850246347,219.45188991848406,201.02170745507462,225.20026847914343,178.52046369941394,228.35933000651505C160.09312951512905,230.9464351063809,142.3076865164066,225.26972538034357,125.54343766624187,217.19385276948492C110.50619902483784,209.94993598129747,97.45044629667086,199.61205462489323,88.98479343255838,185.2271459363731C80.4542165890926,170.73191787500792,77.87547347369636,154.21226522215022,78.58889322113578,137.40829515263312C79.41802679686946,117.87878837872155,81.6740562783876,98.16251918947364,93.34682426903098,82.48337429074661C107.69953200097677,63.204469373023294,126.0605939384316,43.6275467629646,150,41.4871656089141"/> </g> </svg>